<?xml version="1.0" encoding="UTF-8" standalone="no"?><!DOCTYPE svg PUBLIC "-//W3C//DTD SVG 1.1//EN" "http://www.w3.org/Graphics/SVG/1.1/DTD/svg11.dtd"><svg width="100%" height="100%" viewBox="0 0 55365 82067" version="1.1" xmlns="http://www.w3.org/2000/svg" xmlns:xlink="http://www.w3.org/1999/xlink" xml:space="preserve" xmlns:serif="http://www.serif.com/" style="fill-rule:evenodd;clip-rule:evenodd;stroke-linejoin:round;stroke-miterlimit:2;"><path d="M55364.173,4263.258c0,-2352.956 -1910.302,-4263.258 -4263.258,-4263.258l-46837.657,0c-2352.956,0 -4263.258,1910.302 -4263.258,4263.258l0,73539.935c0,2352.956 1910.302,4263.258 4263.258,4263.258l46837.657,0c2352.956,0 4263.258,-1910.302 4263.258,-4263.258l0,-73539.935Z" style="fill:#e52227;"/><rect x="24950.382" y="64965.78" width="25803.342" height="786.99" style="fill:#fff;"/><circle cx="27682.087" cy="26832.812" r="22547.699" style="fill:#e7e8e9;"/><clipPath id="_clip1"><circle cx="27682.087" cy="26832.812" r="22547.699"/></clipPath><g clip-path="url(#_clip1)"><path d="M17721.927,42987.608c188.251,-1465.343 2656.218,-2103.89 3848.599,-2627.982c593.743,-260.916 3717.2,-1206.309 2477.381,741.332c-282,444.272 -1256.01,490.206 -1721.366,557.6c-714.976,103.915 -1307.213,609.931 -1937.101,931.088c-559.858,285.387 -2853.881,1851.634 -2667.513,397.962Zm-640.429,794.042c-93.749,342.239 -798.559,321.531 -1036.132,242.466c-439.377,-146.083 -212.347,-1935.594 -192.769,-2267.291c91.49,-1572.271 266.563,-1629.5 1570.012,-2268.422c850.517,-417.541 916.028,-1551.187 822.655,-2393.045c-177.332,-1608.413 -380.266,-4146.035 1490.193,-4848.213c1170.167,-439.374 2245.832,-528.984 3341.451,-1241.698c385.162,-250.75 2136.271,-716.482 2210.065,-1164.899c128.009,-787.26 172.438,-1676.183 139.68,-2460.812c-68.147,-1619.71 -143.446,-2475.876 1569.261,-2911.86c3264.644,-830.939 2492.438,2191.236 2779.333,4174.269c143.446,995.469 -33.884,1465.343 1075.666,1733.794c1119.339,271.076 2159.989,1173.93 3243.936,1611.426c1019.943,411.511 2445.002,295.176 2736.036,1709.694c220.632,1074.91 214.229,2313.977 94.125,3398.3c-113.325,1022.956 30.121,2316.238 1258.646,2545.527c1588.084,295.552 1227.02,2846.351 1112.563,4069.604c-43.676,468.745 -647.959,378.386 -960.456,307.226c-452.177,-103.162 -320.026,-989.069 -334.71,-1287.635c-52.334,-1016.932 -155.12,-1182.591 -1153.223,-1425.06c-1245.469,-304.213 -2171.287,-1390.42 -3332.417,-1769.18c-269.95,-88.478 -3092.206,-1206.312 -1634.768,-1762.78c1292.529,-493.595 3642.274,1301.566 3609.143,-867.46c-36.897,-2425.423 -1170.167,-3028.204 -3481.887,-3770.286c-1589.966,-510.158 -2841.456,-1698.778 -4484.887,-2021.438c-585.084,-7.905 -1721.741,525.595 -2230.394,900.591c-1209.7,892.313 -2603.885,880.639 -3830.904,1568.506c-1582.812,886.286 -2016.542,2363.3 -1760.897,4075.255c123.868,829.807 4825.996,-675.82 3775.557,933.722c-590.731,905.109 -1979.645,1005.638 -2848.234,1634.018c-872.731,631.015 -2019.931,894.567 -3011.26,1249.985c-776.346,278.234 -365.96,1687.102 -535.386,2305.696Zm1062.488,-16877.057c-526.35,50.826 -798.561,-604.663 -228.161,-805.713c1038.391,-365.96 902.852,-455.943 916.029,-1489.064c21.46,-1661.126 608.802,-2283.483 2384.007,-2364.429c-201.428,553.079 -278.234,1508.264 -71.535,2071.884c302.708,826.044 1920.911,-984.927 2026.708,378.007c78.312,999.238 -4188.58,2128.742 -5027.048,2209.315Zm982.668,-9652.373c1008.272,-1222.498 1771.817,-841.855 3179.555,-1441.622c409.258,-173.946 2077.16,-1328.297 2416.012,-600.9c-579.813,718.746 -271.458,1271.824 -1202.17,1839.966c-1415.647,865.955 -2890.403,1375.36 -4584.284,1285.75c-74.17,-385.912 -10.542,-746.977 190.886,-1083.195Zm5148.282,8640.709c-4.142,1137.415 -1759.014,1353.903 -2593.719,1695.389c-324.544,132.53 -3077.9,1317.755 -3012.012,528.232c108.433,-1291.777 5414.093,-2985.281 5605.731,-2223.62Zm5770.264,-2545.522c-86.22,761.661 -2068.501,-480.043 -2460.063,-337.723c-611.815,-222.514 -1595.613,791.782 -2303.435,600.52c-1363.689,-369.349 2236.793,-1953.291 2303.435,-1972.491c767.311,220.629 2585.061,597.504 2460.063,1709.694Zm-4499.571,-6537.951c0,-1624.605 12.426,-2523.691 2016.92,-2385.513c2205.923,152.103 2111.798,806.839 2048.546,2806.82c-48.194,1525.958 2291.388,1833.561 3383.619,2664.873c315.507,240.208 1496.217,1773.704 549.316,2021.065c-675.067,176.577 -1775.206,-234.561 -2379.113,-463.854c-1303.071,-494.721 -2116.316,-1159.246 -3579.778,-1082.063c-1655.852,-87.346 -2668.266,856.539 -4194.227,1285.377c-469.873,131.772 -1266.174,390.806 -1764.663,260.54c-946.901,-247.361 234.185,-1780.856 549.693,-2021.065c1499.981,-1142.678 3369.688,-1016.553 3369.688,-3086.18Zm5031.942,-1789.135c248.492,-411.144 2739.049,972.88 2993.565,1050.063c1403.973,425.443 2742.812,285.007 2663.371,2265.03c-1850.882,97.894 -6058.661,-828.676 -5656.936,-3315.093Zm5923.123,13096.228c58.357,690.13 -855.034,157.004 -1135.152,99.399c-1240.572,-255.645 -2516.536,-821.908 -3682.185,-1313.24c-1215.346,-512.042 -1058.724,-1591.847 355.418,-1175.436c1234.548,363.696 2354.64,1001.869 3562.833,1412.254c536.516,181.851 844.871,328.313 899.086,977.022Zm525.974,-1211.956c-1268.435,-121.609 -2704.786,-882.523 -3899.804,-1312.108c-1317.755,-473.264 -1557.211,-1616.321 211.972,-1182.215c1091.1,268.065 867.081,-1475.133 615.578,-2164.884c2118.574,96.757 2465.334,1058.721 2377.984,2965.702c-16.189,353.154 2098.242,1829.419 694.27,1693.504Zm396.833,16683.535c-310.992,433.73 -2963.444,-1163.015 -3226.618,-1311.356c-1195.77,-675.443 -3144.166,-471.003 -3144.166,-2077.158c613.699,-1447.649 7564.67,1730.778 6370.785,3388.514Zm-17613.496,3744.684c1561.728,-1047.426 3294.012,-1797.419 5149.411,-2128.739c-31.25,-493.595 -84.336,-1613.31 448.038,-1903.592c-25.226,-991.33 -396.457,-1849 -894.944,-2686.716c1540.266,45.558 492.087,-1909.992 0,-2576.777c603.907,-890.049 2291.388,-1218.735 2015.035,-2574.14c-770.698,8.284 -1463.838,513.548 -2239.43,560.234c753.379,-1124.234 2748.836,-1373.102 3297.023,-2382.876c548.187,1009.774 2543.646,1258.643 3296.649,2382.876c-774.843,-46.686 -1468.357,-551.95 -2239.057,-560.234c-239.076,1173.93 1058.348,1628.744 1748.099,2270.304c587.341,545.926 -1713.459,2939.347 266.939,2880.614c-733.048,1232.667 -874.236,2008.635 -548.563,3281.21c230.795,902.099 -262.797,1206.312 771.45,1446.896c829.434,192.769 1637.408,469.122 2411.118,823.034c721.374,330.191 1410.373,726.269 2068.498,1167.907c469.122,-193.145 1016.932,-255.645 1515.419,-319.273c534.631,-68.147 838.468,-61.747 1106.16,21.084c1893.05,-972.88 3629.854,-2204.041 5165.225,-3649.053c-519.947,-347.889 -1049.308,-689.751 -1403.597,-1206.312c-1057.592,208.958 -696.527,-2612.919 -784.629,-3359.522c786.511,114.457 2466.083,2163.379 2746.954,1763.532c813.621,-1158.87 582.447,-2225.878 -490.206,-3085.806c-634.028,-508.277 -2098.619,-531.997 -2143.047,-1364.065c-584.328,-481.545 -1201.414,-929.583 -1897.189,-1238.69c-812.492,-361.441 -504.514,-1624.981 -455.19,-2569.246c781.24,123.867 2022.188,524.469 2309.082,1163.768c367.088,815.879 1284.624,-217.998 1722.873,629.886c529.737,-509.782 639.299,-1321.895 890.049,-1977.009c320.402,-837.339 -248.869,-1364.445 -878.002,-1972.118c-590.731,-570.4 -1267.303,-1038.763 -1915.639,-1538.385c-328.686,73.041 -1501.111,888.544 -1695.765,1154.357c-223.64,304.965 -692.009,1172.799 -1329.803,749.614c0,-754.887 167.167,-1224.762 -588.094,-1574.532c-550.071,-254.892 1181.083,-2490.933 1485.298,-441.632c836.963,-46.31 2186.344,-1534.622 1121.597,-2126.105c1476.638,-205.193 2028.214,1403.217 3020.673,2126.105c1519.935,-1343.734 -1008.648,-2952.529 -2238.302,-3022.933c-313.25,-807.971 -908.875,-1444.259 -1673.549,-1845.234c-1434.097,-751.871 -604.663,-493.969 -623.11,-1852.387c623.862,462.343 1680.325,477.027 1984.162,1305.329c178.085,483.053 128.009,685.988 621.228,275.224c463.472,-385.159 1043.661,525.595 1481.156,661.515c642.688,-1155.862 57.981,-2188.226 -861.813,-2952.902c-1233.419,-1025.969 -1723.622,-1297.424 -2866.682,-53.463c-143.07,155.872 -1589.213,1332.06 -1644.936,1326.792c-528.608,-697.283 -27.86,-3786.099 1231.162,-2576.78c860.305,-2738.673 2811.335,231.93 4142.27,784.629c-414.151,-1069.263 -1302.319,-1791.766 -2286.117,-2318.493c-823.787,-440.885 -1106.915,-1354.655 -2077.535,-1824.15c-1470.994,-711.967 -11.674,-923.559 557.221,-1680.325c-292.542,-543.668 -925.817,-708.956 -1342.605,-1119.715c-425.069,-21.084 -495.85,427.327 -897.202,448.032c-528.232,-380.644 -6225.454,-2757.873 -6024.777,-3106.89c85.841,-149.093 351.275,-219.877 51.578,-329.812c-340.733,-124.625 -721.374,-181.098 -1075.287,-248.113c-977.398,-184.867 -1207.441,632.52 -1307.966,1551.558c696.904,-77.178 5879.823,1231.914 5205.509,1903.592c-1088.466,48.947 -2284.988,-568.136 -3306.436,-875.365c-440.506,-132.525 -944.643,-314.002 -1413.386,-283.129c-516.184,33.51 52.334,731.546 -79.068,1052.321c-524.089,-73.794 -1141.552,-73.794 -1665.641,0c-131.022,-320.775 437.119,-1018.811 -79.441,-1052.321c-468.369,-30.873 -972.88,150.604 -1413.01,283.129c-1021.451,307.229 -2217.972,924.312 -3306.439,875.365c-673.937,-671.677 4508.605,-1980.769 5205.512,-1903.592c-172.814,-1583.184 -780.866,-1728.141 -2160.365,-1370.086c-293.297,76.052 -463.851,109.562 -227.785,328.686c342.618,318.518 -4943.842,2518.417 -5434.422,2820.372c-667.538,410.764 -540.657,413.775 -1083.949,6.779c-411.139,-307.602 -1007.895,347.507 -1306.085,582.82c-1159.624,914.149 1921.664,1271.445 544.046,1939.739c-768.818,373.112 -1775.959,786.134 -1937.478,1743.957c-1173.178,560.61 -2307.577,1312.482 -2796.653,2575.643c1331.685,-552.699 3282.34,-3523.302 4142.27,-784.629c1210.453,-1162.257 1528.597,1437.107 1415.647,2143.047c-160.391,998.859 -521.832,103.915 -660.761,-184.109c-132.153,-274.092 -899.462,-416.412 -1168.285,-708.951c-987.188,-1074.158 -1327.921,-1101.642 -2479.262,-249.245c-1066.629,789.524 -2003.741,1899.829 -1249.609,3255.61c489.075,-152.109 743.214,-631.02 1231.16,-784.629c335.839,52.71 394.574,391.186 783.122,335.839c44.051,-1250.74 1283.494,-1208.193 2072.265,-1793.277c-18.072,1358.418 810.984,1100.516 -622.733,1852.387c-764.675,400.975 -1360.301,1037.264 -1673.927,1845.234c-1229.277,70.404 -3757.861,1679.199 -2238.302,3022.933c992.835,-722.888 1544.786,-2331.298 3020.673,-2126.105c-1064.37,591.484 285.012,2079.795 1121.598,2126.105c206.699,-1391.176 1572.646,-762.792 1789.887,224.392c-489.075,648.715 -892.685,207.45 -892.685,1231.914c0,1291.777 -990.576,272.587 -1329.804,-189.756c-268.822,-367.844 -932.217,-625.373 -1303.071,-949.538c-554.963,-485.311 -1417.528,558.352 -1853.141,925.065c-631.016,531.242 -1200.287,1143.436 -1562.481,1893.05c457.826,767.687 451.049,1820.761 1119.34,2464.578c326.049,-630.638 1182.591,-138.175 1679.573,-224.016c-238.702,-1035.758 1579.048,-1446.896 2352.382,-1569.637c39.909,761.287 -149.095,1615.945 112.574,2352.382c-742.085,238.7 -1411.504,637.041 -2027.838,1107.668c-358.806,273.716 -481.545,1083.571 -995.847,1020.319c-387.42,-98.267 -910.004,231.171 -1210.829,423.564c-1308.719,837.339 -1537.632,1629.873 -1042.156,2993.939c323.792,891.933 631.017,479.287 1060.981,-66.262c498.489,-632.146 1021.449,-1214.972 1864.813,-1337.334c-90.361,764.298 78.689,1481.909 -49.698,2176.931c-221.76,1201.041 -1055.334,1648.699 -2033.861,2302.685c1570.763,1494.709 3355.758,2764.649 5305.659,3760.873c712.718,-145.706 1478.899,-97.139 2376.102,272.587Z" style="fill:#231f20;"/></g><g><path d="M4639.293,62739.971l0,-6444.471c0,-635.854 244.89,-1187.931 734.67,-1656.229c489.78,-468.298 1048.301,-702.447 1675.562,-702.447c936.596,-0 1641.192,403.854 2113.786,1211.561c197.63,-360.89 489.78,-653.04 876.448,-876.448c386.668,-223.408 786.225,-335.112 1198.672,-335.112c773.337,-0 1381.265,259.927 1823.785,779.781c442.52,519.854 663.781,1175.042 663.781,1965.564l0,6057.803l-2526.233,0l0,-5671.134c0,-326.52 -116,-489.78 -348.001,-489.78c-128.889,0 -227.705,53.704 -296.446,161.112c-68.741,107.408 -103.112,229.853 -103.112,367.335l0,5632.468l-2539.122,0l0,-5671.134c0,-326.52 -116,-489.78 -348.001,-489.78c-257.779,0 -386.668,163.26 -386.668,489.78l0,5671.134l-2539.122,0Z" style="fill:#fff;fill-rule:nonzero;"/><path d="M20260.691,57481.282l0,1933.341l-1675.562,0c-128.889,0 -232.001,6.444 -309.335,19.333c-77.334,12.889 -150.371,53.704 -219.112,122.445c-68.741,68.741 -103.112,163.26 -103.112,283.557c0,137.482 45.111,240.594 135.334,309.335c90.223,68.741 176.149,107.408 257.779,116c81.63,8.593 199.779,12.889 354.446,12.889l1714.229,0l0,2461.788l-2100.898,0c-859.263,0 -1529.488,-214.816 -2010.675,-644.447c-541.336,-489.78 -812.003,-1095.56 -812.003,-1817.341l0,-3789.349c0,-635.854 249.186,-1185.783 747.559,-1649.785c498.372,-464.002 1065.486,-696.003 1701.34,-696.003l2474.677,0l0,2474.677l-1714.229,0c-386.668,0 -580.002,141.778 -580.002,425.335c0,292.149 210.519,438.224 631.558,438.224l1508.006,0Z" style="fill:#fff;fill-rule:nonzero;"/><path d="M22374.477,54143.047l2526.233,0l0,5284.466c0,549.928 369.483,824.892 1108.449,824.892l0,2487.566l-786.225,0c-850.67,0 -1538.08,-283.557 -2062.231,-850.67c-524.15,-567.113 -786.225,-1280.302 -786.225,-2139.564l0,-5606.69Z" style="fill:#fff;fill-rule:nonzero;"/><path d="M26782.495,54143.047l2526.233,0l0,5284.466c0,549.928 369.483,824.892 1108.449,824.892l0,2487.566l-786.225,0c-850.67,0 -1538.08,-283.557 -2062.231,-850.67c-524.15,-567.113 -786.225,-1280.302 -786.225,-2139.564l0,-5606.69Z" style="fill:#fff;fill-rule:nonzero;"/><path d="M30533.177,58306.175c0,-1211.561 442.52,-2242.676 1327.561,-3093.346c885.041,-850.67 1937.638,-1276.005 3157.791,-1276.005c1228.746,-0 2292.083,423.187 3190.013,1269.561c897.93,846.374 1346.894,1879.637 1346.894,3099.791c0,1263.116 -438.224,2354.38 -1314.672,3273.791c-876.448,919.411 -1941.934,1379.117 -3196.458,1379.117c-1254.524,0 -2320.01,-459.706 -3196.458,-1379.117c-876.448,-919.411 -1314.672,-2010.675 -1314.672,-3273.791Zm2513.344,38.667c0,558.521 191.186,1050.449 573.558,1475.784c382.372,425.335 852.818,638.003 1411.339,638.003c558.521,0 1033.264,-212.668 1424.228,-638.003c390.965,-425.335 586.447,-921.559 586.447,-1488.673c0,-532.743 -199.779,-983.856 -599.336,-1353.339c-399.557,-369.483 -870.004,-554.224 -1411.339,-554.224c-532.743,0 -996.745,189.038 -1392.006,567.113c-395.261,378.076 -592.891,829.189 -592.891,1353.339Z" style="fill:#fff;fill-rule:nonzero;"/><path d="M40754.108,54155.935l2539.122,0l0,5671.134c0,326.52 128.889,489.78 386.668,489.78c232.001,0 348.001,-163.26 348.001,-489.78l0,-5671.134l2539.122,0l0,5632.468c0,137.482 34.371,259.927 103.112,367.335c68.741,107.408 167.556,161.112 296.446,161.112c232.001,0 348.001,-163.26 348.001,-489.78l0,-5671.134l2526.233,0l0,6057.803c0,446.817 -34.371,777.633 -103.112,992.449c-163.26,524.15 -466.15,947.337 -908.67,1269.561c-442.52,322.224 -934.448,483.335 -1475.784,483.335c-403.854,0 -801.263,-113.852 -1192.227,-341.557c-390.965,-227.705 -685.262,-517.706 -882.893,-870.004c-472.595,807.707 -1177.19,1211.561 -2113.786,1211.561c-627.262,0 -1185.783,-236.297 -1675.562,-708.892c-489.78,-472.595 -734.67,-1022.523 -734.67,-1649.785l0,-6444.471Z" style="fill:#fff;fill-rule:nonzero;"/></g><g><path d="M8103.854,71991.831l0,-3337.045c338.283,-44.494 586.358,-66.741 744.223,-66.741c1161.44,0 2167.833,411.569 3019.179,1234.707c851.347,823.138 1277.02,1802.004 1277.02,2936.6c0,1201.336 -417.216,2216.354 -1251.648,3045.054c-834.432,828.7 -1860.559,1243.049 -3078.379,1243.049c-1172.716,0 -2165.014,-433.816 -2976.894,-1301.448c-811.88,-867.632 -1217.82,-1879.869 -1217.82,-3036.711l0,-6957.739l3027.636,0l0,6957.739c0,355.951 98.666,667.409 295.998,934.373c197.332,266.964 476.416,400.445 837.251,400.445c315.731,0 589.177,-114.016 820.337,-342.047c231.16,-228.031 346.74,-497.776 346.74,-809.233c0,-311.458 -115.58,-578.421 -346.74,-800.891c-231.16,-222.47 -504.606,-333.704 -820.337,-333.704c-214.246,0 -439.768,77.864 -676.567,233.593Z" style="fill:#fff;fill-rule:nonzero;"/><path d="M18100.127,68754.898l0,8125.705l-3095.293,0l0,-8125.705l3095.293,0Zm-2621.696,-3170.193c315.731,-289.211 676.567,-433.816 1082.507,-433.816c405.94,0 763.957,141.824 1074.05,425.473c310.093,283.649 465.14,625.696 465.14,1026.141c0,422.692 -149.408,770.301 -448.225,1042.827c-298.817,272.525 -662.472,408.788 -1090.964,408.788c-439.768,0 -806.242,-136.263 -1099.421,-408.788c-293.179,-272.525 -439.768,-620.134 -439.768,-1042.827c0,-389.322 152.228,-728.588 456.683,-1017.799Z" style="fill:#fff;fill-rule:nonzero;"/><path d="M23681.803,65751.557l0,11129.045l-3095.293,0l0,-11129.045l3095.293,0Zm4735.967,3003.34l-1522.275,2953.285l2249.584,5172.42l-3416.662,0l-1945.129,-5305.902l1420.79,-2819.803l3213.692,0Z" style="fill:#fff;fill-rule:nonzero;"/><path d="M38227.988,73309.964l-4837.452,0c-67.657,-266.964 -101.485,-467.186 -101.485,-600.668c0,-289.211 50.743,-567.298 152.228,-834.261l1691.417,0c-56.381,-266.964 -180.418,-483.872 -372.112,-650.724c-191.694,-166.852 -422.854,-250.278 -693.481,-250.278c-428.492,0 -761.138,175.195 -997.936,525.585c-236.798,350.39 -355.198,748.054 -355.198,1192.994c0,444.939 115.58,850.946 346.74,1218.021c231.16,367.075 555.349,550.612 972.565,550.612c338.283,0 648.376,-150.167 930.279,-450.501l1775.988,2085.653c-823.156,634.039 -1736.521,951.058 -2740.095,951.058c-1206.544,0 -2229.851,-425.473 -3069.922,-1276.42c-840.07,-850.946 -1260.106,-1865.964 -1260.106,-3045.054c0,-1112.348 428.492,-2080.091 1285.477,-2903.229c856.985,-823.138 1854.921,-1234.707 2993.808,-1234.707c1161.44,0 2167.833,408.788 3019.179,1226.364c851.347,817.576 1277.02,1793.662 1277.02,2928.257c0,55.617 -2.819,147.386 -8.457,275.306c-5.638,127.92 -8.457,225.251 -8.457,291.991Z" style="fill:#fff;fill-rule:nonzero;"/><path d="M44536.973,68688.157l0,3270.304c-180.418,-88.988 -355.198,-133.482 -524.339,-133.482c-270.627,0 -479.235,94.55 -625.824,283.649c-146.589,189.099 -219.884,422.692 -219.884,700.779l0,4071.195l-3146.035,0l0,-4888.771c0,-923.249 349.559,-1721.359 1048.678,-2394.33c699.119,-672.971 1516.637,-1009.456 2452.554,-1009.456c338.283,0 676.567,33.37 1014.85,100.111Z" style="fill:#fff;fill-rule:nonzero;"/><path d="M50287.791,68871.694l0,3203.563c-428.492,11.123 -727.309,105.673 -896.451,283.649c-169.142,177.976 -270.627,483.872 -304.455,917.687c-90.209,1167.966 -482.054,2093.996 -1175.535,2778.09c-693.481,684.094 -1626.579,1031.703 -2799.295,1042.827l-761.138,0l0,-3220.248c518.701,0 904.908,-102.892 1158.621,-308.677c253.713,-205.784 391.845,-564.517 414.397,-1076.197c45.104,-1190.213 335.464,-2091.215 871.08,-2703.006c535.615,-611.792 1389.781,-917.687 2562.497,-917.687l930.279,0Z" style="fill:#fff;fill-rule:nonzero;"/></g></svg>